<?xml version="1.0" standalone="no"?>
<!DOCTYPE svg PUBLIC "-//W3C//DTD SVG 20010904//EN"
 "http://www.w3.org/TR/2001/REC-SVG-20010904/DTD/svg10.dtd">
<svg version="1.0" xmlns="http://www.w3.org/2000/svg"
 width="500.000000pt" height="500.000000pt" viewBox="0 0 500.000000 500.000000"
 preserveAspectRatio="xMidYMid meet">

<g transform="translate(0.000000,500.000000) scale(0.100000,-0.100000)"
fill="#000000" stroke="none">
<path d="M3745 3499 c-44 -22 -242 -118 -440 -215 -198 -97 -368 -183 -379
-192 -10 -9 -20 -16 -22 -14 -17 10 -25 -2 -9 -14 19 -14 19 -15 -10 -10 -28
5 -29 4 -11 -9 11 -8 23 -15 28 -15 4 0 4 -8 1 -17 -5 -14 -4 -16 8 -7 8 6 34
16 58 23 24 7 67 23 95 36 83 37 179 75 183 72 2 -2 -19 -62 -46 -133 -27 -71
-47 -131 -45 -133 2 -3 156 147 342 332 185 185 335 337 332 336 -3 0 -41 -18
-85 -40z"/>
<path d="M2847 3035 c5 -14 43 -28 43 -17 0 4 -11 12 -24 18 -19 9 -23 9 -19
-1z"/>
<path d="M2873 2819 c-61 -23 -130 -87 -158 -144 -24 -51 -31 -161 -14 -223
18 -66 115 -163 182 -181 64 -18 171 -10 223 17 43 22 104 69 104 80 0 4 -16
20 -36 36 l-36 28 -21 -20 c-77 -73 -224 -65 -286 14 -72 92 -64 196 22 271
70 62 147 67 239 15 l48 -27 31 32 32 31 -47 33 c-86 61 -187 75 -283 38z"/>
<path d="M653 2813 c17 -56 228 -529 240 -537 8 -5 25 -6 38 -3 20 5 33 30 81
149 32 79 80 199 108 267 27 69 50 128 50 133 0 4 -18 8 -41 8 l-40 0 -48
-102 c-26 -57 -65 -144 -87 -195 -21 -51 -40 -90 -42 -88 -2 2 -33 68 -68 147
-107 238 -103 232 -153 236 -38 2 -43 1 -38 -15z"/>
<path d="M1225 2818 c-3 -7 -6 -132 -8 -278 l-2 -265 198 -3 197 -2 0 50 0 50
-145 0 -145 0 0 33 c-1 17 -3 49 -6 70 l-6 37 131 0 131 0 0 45 0 44 -127 3
-128 3 0 70 0 70 143 3 143 3 -3 37 -3 37 -183 3 c-140 2 -184 0 -187 -10z"/>
<path d="M1677 2823 c-4 -3 -7 -129 -7 -280 l0 -273 186 0 185 0 -3 48 -3 47
-131 3 -131 3 -8 222 c-4 122 -9 225 -12 230 -5 9 -67 9 -76 0z"/>
<path d="M3275 2817 c-3 -7 -4 -131 -3 -277 l3 -265 48 -3 47 -3 0 219 c0 120
-3 247 -6 281 l-7 61 -39 0 c-22 0 -41 -5 -43 -13z"/>
<path d="M3430 2791 c0 -46 10 -51 117 -51 l73 0 2 -232 3 -233 45 0 45 0 5
235 5 235 76 -3 c85 -4 103 6 97 55 l-3 28 -232 3 -233 2 0 -39z"/>
<path d="M4028 2783 c-11 -27 -41 -93 -66 -148 -137 -302 -160 -354 -154 -359
3 -3 25 -6 49 -6 l44 0 27 60 27 59 132 1 132 0 25 -54 c13 -29 32 -56 41 -60
24 -9 73 -7 79 3 3 4 -43 111 -102 237 -59 126 -115 248 -124 272 -15 39 -19
42 -53 42 -34 0 -38 -3 -57 -47z m104 -201 c22 -54 32 -88 25 -89 -49 -8 -147
-7 -147 1 0 22 66 176 75 176 6 0 26 -40 47 -88z"/>
<path d="M2200 2797 c-131 -59 -190 -225 -130 -365 28 -64 110 -143 167 -160
63 -19 181 -15 230 7 54 25 120 92 146 150 30 65 30 180 0 237 -29 54 -101
120 -116 105 -15 -15 -30 -14 -21 2 6 9 5 9 -8 0 -8 -7 -18 -10 -21 -6 -4 3
-7 1 -7 -6 0 -8 -7 -11 -17 -7 -15 5 -15 3 1 -7 80 -52 116 -111 116 -192 0
-98 -57 -171 -152 -195 -89 -23 -199 32 -234 117 -19 44 -17 128 3 170 9 20
38 51 65 70 26 19 48 42 48 51 0 15 -2 15 -10 2 -8 -13 -10 -12 -10 3 0 9 -5
17 -11 17 -5 0 -7 5 -4 10 8 13 -3 12 -35 -3z"/>
<path d="M3725 2132 c-30 -6 -55 -32 -55 -57 0 -26 14 -40 50 -49 78 -22 98
-44 68 -74 -18 -18 -87 -15 -94 3 -8 19 -24 19 -24 0 0 -22 57 -48 89 -40 50
13 76 57 53 91 -10 16 -48 34 -70 34 -25 0 -54 33 -46 54 10 25 57 25 87 -2
20 -17 30 -12 21 11 -7 19 -51 35 -79 29z"/>
<path d="M1240 2026 l0 -105 43 -6 c56 -9 99 -3 105 13 3 9 -13 12 -57 12
l-61 0 0 34 c0 33 1 34 55 41 30 3 55 11 55 16 0 5 -25 9 -55 9 l-55 0 0 35 0
35 60 0 c33 0 60 4 60 10 0 6 -32 10 -75 10 l-75 0 0 -104z"/>
<path d="M1480 2025 l0 -105 76 0 c47 0 73 4 69 10 -3 6 -31 10 -61 10 l-54 0
0 95 c0 78 -3 95 -15 95 -12 0 -15 -18 -15 -105z"/>
<path d="M1710 2025 l0 -105 75 0 c43 0 75 4 75 10 0 6 -29 10 -66 10 l-65 0
3 38 3 37 53 3 c69 4 67 22 -3 22 l-55 0 0 35 0 35 60 0 c33 0 60 4 60 10 0 6
-30 10 -70 10 l-70 0 0 -105z"/>
<path d="M1971 2104 c-57 -47 -50 -137 13 -175 17 -10 42 -19 56 -19 28 0 90
34 90 50 0 15 -11 12 -33 -7 -25 -24 -90 -23 -116 1 -16 14 -21 31 -21 67 0
39 4 51 26 68 32 25 81 27 106 4 10 -9 21 -13 26 -9 4 4 -4 16 -17 27 -34 28
-92 25 -130 -7z"/>
<path d="M2200 2120 c0 -5 16 -10 35 -10 l35 0 0 -95 c0 -123 18 -125 22 -2
l3 92 38 3 c71 6 37 22 -48 22 -50 0 -85 -4 -85 -10z"/>
<path d="M2447 2123 c-4 -3 -7 -51 -7 -105 0 -80 3 -98 15 -98 11 0 15 11 15
40 0 38 2 40 29 40 24 0 36 -9 62 -45 18 -25 36 -45 41 -45 12 0 10 7 -17 50
-21 33 -23 41 -11 46 8 3 19 18 26 34 13 32 2 63 -30 80 -21 11 -113 14 -123
3z m112 -23 c26 -13 33 -37 18 -60 -9 -15 -23 -20 -59 -20 l-48 0 0 45 c0 45
0 45 36 45 19 0 43 -4 53 -10z"/>
<path d="M2740 2113 c-40 -27 -49 -45 -49 -93 0 -25 5 -52 12 -60 71 -90 196
-51 197 61 0 41 -4 51 -35 78 -41 36 -86 41 -125 14z m115 -28 c36 -36 34 -88
-5 -127 -27 -26 -36 -30 -68 -25 -47 8 -72 38 -72 89 0 52 35 88 85 88 25 0
44 -8 60 -25z"/>
<path d="M2998 2038 c-6 -94 -3 -118 13 -118 5 0 9 37 9 83 l0 82 25 -30 c13
-16 41 -53 62 -82 56 -77 63 -71 63 52 0 128 -18 142 -22 18 l-3 -88 -63 82
c-34 45 -66 84 -71 87 -4 3 -11 -36 -13 -86z"/>
<path d="M3276 2114 c-3 -9 -6 -49 -6 -89 0 -76 6 -105 21 -105 5 0 9 47 9
105 0 97 -9 129 -24 89z"/>
<path d="M3438 2113 c-72 -45 -59 -160 22 -193 28 -11 39 -11 74 1 26 9 42 21
45 34 3 19 2 19 -15 3 -46 -41 -112 -30 -139 22 -43 83 52 165 130 114 31 -20
33 -1 3 20 -29 21 -86 20 -120 -1z"/>
</g>
</svg>
